<svg xmlns="http://www.w3.org/2000/svg" width="48.113" height="45.941" viewBox="0 0 48.113 45.941">
  <path id="icons8_small_business" d="M6.28,4A1.094,1.094,0,0,0,5.187,5.093V9.312c-.044.146-.524,1.742-1.049,3.532-.274.935-.549,1.885-.756,2.629-.1.372-.191.692-.254.942-.032.125-.058.231-.079.327a.956.956,0,0,0-.049.38,4.34,4.34,0,0,0,1.149,2.924,1.094,1.094,0,0,0-.056.357V48.833a1.094,1.094,0,0,0,1.093,1.093h6.377a1.093,1.093,0,0,0,.357,0H26.873a1.094,1.094,0,0,0,.357,0H42.182a1.094,1.094,0,0,0,.357,0h6.388a1.094,1.094,0,0,0,1.093-1.093V20.4a1.094,1.094,0,0,0-.056-.357,4.339,4.339,0,0,0,1.149-2.924.957.957,0,0,0-.049-.38c-.021-.1-.047-.2-.079-.327-.064-.25-.15-.57-.254-.942-.207-.744-.482-1.694-.756-2.629-.525-1.791-1-3.386-1.049-3.532V5.093A1.094,1.094,0,0,0,47.833,4ZM7.374,6.187H46.739V8.374H7.374ZM7.1,10.561H47.017c.163.544.431,1.431.861,2.9.273.931.545,1.875.748,2.6.1.363.185.672.241.893.022.087.035.146.047.2a2.181,2.181,0,0,1-4.361-.03,1.094,1.094,0,0,0-2.185-.077q0,.038,0,.077a2.187,2.187,0,1,1-4.374,0,1.094,1.094,0,0,0-.248-.709q-.034-.041-.073-.079a1.093,1.093,0,0,0-.263-.194h0q-.048-.026-.1-.047a1.094,1.094,0,0,0-.318-.075q-.054,0-.109,0a1.094,1.094,0,0,0-.218.026q-.053.011-.1.028t-.1.038l0,0a1.093,1.093,0,0,0-.154.083l-.036.024-.036.03a1,1,0,0,0-.261.286q-.029.046-.053.094v0q-.024.048-.043.1v0q-.019.05-.032.1v0q-.014.052-.024.1s0,0,0,0q-.008.053-.011.107s0,0,0,0q0,.037,0,.075a2.187,2.187,0,1,1-4.374,0q0-.055,0-.109a1.094,1.094,0,0,0-.244-.6v0a1.094,1.094,0,0,0-.337-.273q-.048-.026-.1-.047a1.105,1.105,0,0,0-.85.013l0,0a1.094,1.094,0,0,0-.154.083q-.037.025-.073.053a1.04,1.04,0,0,0-.314.38s0,0,0,0q-.024.048-.043.1s0,0,0,0q-.019.05-.032.1s0,0,0,0q-.014.052-.024.1s0,0,0,0q-.008.053-.011.107v0q0,.037,0,.075a2.187,2.187,0,1,1-4.374,0q0-.055,0-.109a1.094,1.094,0,0,0-.244-.6v0a1.094,1.094,0,0,0-.337-.273q-.048-.026-.1-.047a1.105,1.105,0,0,0-.85.013l0,0a1.094,1.094,0,0,0-.154.083l-.036.024-.036.03a1.094,1.094,0,0,0-.314.38s0,0,0,0q-.024.048-.043.1s0,0,0,0q-.019.05-.032.1s0,0,0,0q-.014.052-.024.1s0,0,0,0q-.008.053-.011.107s0,0,0,0q0,.037,0,.075a2.187,2.187,0,1,1-4.374,0q0-.055,0-.109a1.094,1.094,0,0,0-.244-.6s0,0,0,0a1.094,1.094,0,0,0-.337-.273q-.048-.026-.1-.047a1.105,1.105,0,0,0-.85.013l0,0a1.093,1.093,0,0,0-.154.083l-.036.024-.036.03a1.094,1.094,0,0,0-.314.38v0q-.024.048-.043.1s0,0,0,0q-.019.05-.032.1v0q-.014.052-.024.1v0q-.008.053-.011.107s0,0,0,0q0,.037,0,.075a2.187,2.187,0,1,1-4.374,0q0-.055,0-.109a1.094,1.094,0,0,0-.244-.6s0,0,0,0a1.094,1.094,0,0,0-.337-.273q-.048-.026-.1-.047a1.105,1.105,0,0,0-.85.013l0,0a1.094,1.094,0,0,0-.154.083l-.036.024-.036.03a1.094,1.094,0,0,0-.314.38s0,0,0,0q-.024.048-.043.1v0q-.019.05-.032.1s0,0,0,0q-.014.052-.023.1s0,0,0,0q-.008.053-.011.107s0,0,0,0q0,.037,0,.075a2.181,2.181,0,0,1-4.361.03c.012-.053.025-.112.047-.2.056-.22.14-.529.241-.893.2-.727.475-1.671.747-2.6C6.665,11.992,6.933,11.1,7.1,10.561Zm3.558,9.416a4.3,4.3,0,0,0,6.561,0,4.3,4.3,0,0,0,6.561,0,4.3,4.3,0,0,0,6.561,0,4.3,4.3,0,0,0,6.561,0,4.3,4.3,0,0,0,6.561,0,4.351,4.351,0,0,0,3.28,1.519,4.293,4.293,0,0,0,1.093-.158v26.4H43.459V25.87a1.094,1.094,0,0,0-1.093-1.093H27.225a.988.988,0,0,0-.344,0H11.748a1.094,1.094,0,0,0-1.093,1.093v21.87H6.28v-26.4a4.292,4.292,0,0,0,1.093.158A4.351,4.351,0,0,0,10.654,19.977Zm2.187,6.986H25.963V47.739H12.841Zm15.309,0H41.272V47.739H28.15Zm-5.467,8.748A1.093,1.093,0,1,0,23.776,36.8,1.093,1.093,0,0,0,22.683,35.711Zm8.748,0A1.093,1.093,0,1,0,32.524,36.8,1.093,1.093,0,0,0,31.431,35.711Z" transform="translate(-3 -4)" fill="#fff"/>
</svg>
