<svg xmlns="http://www.w3.org/2000/svg" width="44.012" height="44.012" viewBox="0 0 44.012 44.012">
  <path id="icons8_call_1" d="M38.949,47.01a17.431,17.431,0,0,1-6.926-1.855c-3.711-1.734-8.8-5.109-15.43-11.734S6.59,21.7,4.855,17.986A17.48,17.48,0,0,1,3,11.064v-.051a3.528,3.528,0,0,1,.977-2.2A18.94,18.94,0,0,1,5.867,6.76a37.276,37.276,0,0,1,3.59-3.035,3.02,3.02,0,0,1,4.281.32c.605.844,5.2,7.816,5.883,8.953h0a3.307,3.307,0,0,1-.219,3.484c-.48.879-1.832,3.23-2.226,3.914A44.862,44.862,0,0,0,23,27.017l0,0v0c4.164,4.234,6.106,5.5,6.609,5.816.668-.383,2.98-1.715,3.891-2.215a3.4,3.4,0,0,1,3.457-.27l.012,0,.008.008c.535.32,2.523,1.613,4.563,2.953,1.02.668,2.031,1.336,2.836,1.867s1.328.887,1.594,1.086a3.023,3.023,0,0,1,.32,4.281,38.385,38.385,0,0,1-3.031,3.617,17.748,17.748,0,0,1-2.066,1.9A3.323,3.323,0,0,1,38.949,47.01Zm.1-2a7.3,7.3,0,0,0,.934-.531,16.418,16.418,0,0,0,1.824-1.687,37.716,37.716,0,0,0,2.852-3.4c.621-.867.188-1.461.148-1.488l-.012-.012-.012,0c-.086-.07-.719-.5-1.52-1.031s-1.8-1.2-2.824-1.863c-2.023-1.328-4.121-2.687-4.473-2.9h0a1.81,1.81,0,0,0-1.437.254l-.016.012-.02.008c-.914.5-4.445,2.527-4.445,2.527l-.5.285-.5-.285s-2.613-1.516-7.473-6.461a0,0,0,0,0,0,0v0a47.787,47.787,0,0,1-6.445-7.442l-.3-.5.293-.512s2.027-3.531,2.523-4.445a2.457,2.457,0,0,0,.309-1.414l-.012-.02-.012-.023c-.4-.664-5.551-8.48-5.82-8.859-.027-.039-.625-.473-1.488.148A36.9,36.9,0,0,0,7.25,8.2a17.565,17.565,0,0,0-1.684,1.828,5.418,5.418,0,0,0-.559.981,14.394,14.394,0,0,0,1.66,6.129c1.609,3.445,4.84,8.367,11.34,14.867s11.418,9.73,14.863,11.34A14.577,14.577,0,0,0,39.051,45.013Z" transform="translate(-3 -3)" fill="#fff"/>
</svg>
