<svg xmlns="http://www.w3.org/2000/svg" width="58.376" height="47.899" viewBox="0 0 58.376 47.899">
  <path id="icons8_certificate" d="M19.233,18A8.244,8.244,0,0,0,11,26.233V57.666A8.244,8.244,0,0,0,19.233,65.9H61.144a8.244,8.244,0,0,0,8.233-8.233V26.233A8.244,8.244,0,0,0,61.144,18Zm0,1.5H61.144a6.724,6.724,0,0,1,6.736,6.736V57.666A6.724,6.724,0,0,1,61.144,64.4H19.233A6.724,6.724,0,0,1,12.5,57.666V26.233A6.724,6.724,0,0,1,19.233,19.5Zm2.619,3.742a5.619,5.619,0,0,0-5.613,5.613V55.047a5.619,5.619,0,0,0,5.613,5.613H58.524a5.619,5.619,0,0,0,5.613-5.613.374.374,0,1,0-.748,0,4.859,4.859,0,0,1-4.865,4.865H21.852a4.859,4.859,0,0,1-4.865-4.865V28.852a4.859,4.859,0,0,1,4.865-4.865H33.078a.374.374,0,1,0,0-.748Zm12.723,0a.374.374,0,1,0,0,.748h4.49a.374.374,0,1,0,0-.748Zm5.987,0a.374.374,0,1,0,0,.748h2.245a.374.374,0,1,0,0-.748ZM24.846,29.226a.374.374,0,1,0,0,.748H45.8a.374.374,0,1,0,0-.748Zm23.2,0a.374.374,0,1,0,0,.748h7.484a.374.374,0,1,0,0-.748ZM30.085,32.968a.374.374,0,1,0,0,.748h21.7a.374.374,0,1,0,0-.748Zm10.092,2.994a.374.374,0,0,0-.249.105L38.117,37.82l-2.5-.354a.374.374,0,0,0-.421.306l-.436,2.483-2.226,1.18a.374.374,0,0,0-.161.5l1.107,2.264-1.107,2.264a.374.374,0,0,0,.161.5l2.219,1.177L30.568,52.32a.374.374,0,0,0,.146.62l2.231.743.743,2.231a.374.374,0,0,0,.62.146L38.971,51.4l.957.925a.374.374,0,0,0,.52,0l.957-.925,4.663,4.663a.374.374,0,0,0,.62-.146l.743-2.231,2.231-.743a.374.374,0,0,0,.146-.62l-4.189-4.189,2.219-1.177a.374.374,0,0,0,.161-.5l-1.107-2.264L48,41.93a.374.374,0,0,0-.161-.5l-2.226-1.18-.436-2.483a.374.374,0,0,0-.421-.306l-2.5.354-1.811-1.753A.374.374,0,0,0,40.177,35.962Zm.012.895,1.682,1.628a.374.374,0,0,0,.313.1l2.318-.327.4,2.305a.374.374,0,0,0,.194.266l2.067,1.1-1.028,2.1a.374.374,0,0,0,0,.327l1.028,2.1L45.1,47.56a.374.374,0,0,0-.194.266l-.4,2.305L42.184,49.8a.374.374,0,0,0-.313.1l-1.682,1.628L38.506,49.9a.374.374,0,0,0-.313-.1l-2.318.327-.4-2.305a.374.374,0,0,0-.194-.266l-2.067-1.1,1.028-2.1a.374.374,0,0,0,0-.327l-1.028-2.1,2.067-1.1a.374.374,0,0,0,.194-.266l.4-2.305,2.318.327a.374.374,0,0,0,.313-.1Zm0,2.473a4.865,4.865,0,1,0,3.751,7.961.374.374,0,1,0-.576-.477,4.116,4.116,0,1,1-3.175-6.736c.123,0,.246.007.373.019a.374.374,0,0,0,.07-.745C40.489,39.338,40.342,39.33,40.19,39.33Zm2.032.491a.374.374,0,0,0-.162.71,4.144,4.144,0,0,1,1.305,1.044.374.374,0,1,0,.577-.477A4.9,4.9,0,0,0,42.4,39.865.374.374,0,0,0,42.222,39.821Zm2.288,2.77a.374.374,0,0,0-.362.481,4.146,4.146,0,0,1,.14.748.374.374,0,1,0,.745-.067,4.907,4.907,0,0,0-.165-.884A.374.374,0,0,0,44.509,42.591Zm-9.588,6.435.279,1.592a.374.374,0,0,0,.421.306l2.5-.354.316.307L34.207,55.1,33.6,53.269a.374.374,0,0,0-.237-.237l-1.833-.611Zm10.533,0,3.4,3.4-1.833.611a.374.374,0,0,0-.237.237L46.17,55.1l-4.226-4.226.316-.307,2.5.354a.374.374,0,0,0,.421-.306Z" transform="translate(-11 -18)" fill="#fff"/>
</svg>
