<svg xmlns="http://www.w3.org/2000/svg" width="52.487" height="52.487" viewBox="0 0 52.487 52.487">
  <path id="icons8_combo_chart" d="M49.113,2a2.186,2.186,0,0,0-2.187,2.187,2.135,2.135,0,0,0,.205.888L38.384,17.309c-.068,0-.137,0-.205,0a2.2,2.2,0,0,0-1.2.342l-7.552-3.759a2.189,2.189,0,0,0-4.374.137,2.249,2.249,0,0,0,.034.342l-8,6.356a2.2,2.2,0,0,0-2.939,1.709L6.707,25.442a2.16,2.16,0,0,0-1.333-.478,2.187,2.187,0,1,0,2.153,2.495l7.449-2.973a2.16,2.16,0,0,0,1.333.478A2.186,2.186,0,0,0,18.5,22.776a2.263,2.263,0,0,0-.034-.342l8-6.356a2.173,2.173,0,0,0,.786.137,2.2,2.2,0,0,0,1.2-.342l7.552,3.759a2.189,2.189,0,0,0,4.374-.137,2.135,2.135,0,0,0-.205-.888L48.908,6.374c.068,0,.137,0,.205,0a2.187,2.187,0,0,0,0-4.374ZM44.739,16.215V54.487h8.748V16.215ZM46.926,18.4H51.3V52.3H46.926ZM22.87,26.057V54.487h8.748V26.057Zm2.187,2.187h4.374V52.3H25.057Zm8.748,3.28V54.487h8.748V31.524Zm2.187,2.187h4.374V52.3H35.992ZM11.935,34.8V54.487h8.748V34.8Zm2.187,2.187H18.5V52.3H14.122ZM1,39.179V54.487H9.748V39.179Zm2.187,2.187H7.561V52.3H3.187Z" transform="translate(-1 -2)" fill="#fff"/>
</svg>
