<svg xmlns="http://www.w3.org/2000/svg" width="45.157" height="45.157" viewBox="0 0 45.157 45.157">
  <path id="icons8_classroom_1" d="M8.862,0a.9.9,0,0,0-.734.9V2.709a.9.9,0,1,0,1.806,0v-.9h31.61V22.579h-3.7l.988-1.806-.988-1.806H29.8v3.613H19.785a.9.9,0,1,0,.085,1.806H43.351v.9H19.869a.9.9,0,1,0,0,1.806H44.254a.9.9,0,0,0,.9-.9V23.482a.9.9,0,0,0-.9-.9h-.9V.9a.9.9,0,0,0-.9-.9H8.862Zm1.976,4.516a5.419,5.419,0,1,0,5.419,5.419A5.434,5.434,0,0,0,10.838,4.516Zm0,10.838H8.749a4.555,4.555,0,0,0-2.6.706,4.084,4.084,0,0,0-1.637,3.528V29.3a4.464,4.464,0,0,0-1.1,7.536A6.367,6.367,0,0,0,0,42.448v1.806a.9.9,0,0,0,.9.9H44.254a.9.9,0,0,0,.9-.9V42.448a6.367,6.367,0,0,0-3.415-5.616,4.516,4.516,0,1,0-5.814,0A6.491,6.491,0,0,0,33.416,39.2,6.393,6.393,0,0,0,30.9,36.831a4.516,4.516,0,1,0-5.814,0A6.491,6.491,0,0,0,22.579,39.2a6.418,6.418,0,0,0-2.512-2.371,4.5,4.5,0,0,0,1.609-3.415,4.545,4.545,0,0,0-3.613-4.431V20.772l3.867-1.383.028-.028c.007,0,.021,0,.028,0a3.556,3.556,0,0,0,1.834-1.214h.028l4.516-5.842v-.028a2.58,2.58,0,0,0-.452-3.613,2.666,2.666,0,0,0-1.891-.508,2.448,2.448,0,0,0-1.722.96l-3.867,5L14.45,15.353Zm0-9.031A3.613,3.613,0,1,1,7.225,9.935,3.6,3.6,0,0,1,10.838,6.322ZM26.219,9.963a.744.744,0,0,1,.706,1.214c-.007.007.007.021,0,.028l-4.516,5.842v.028a2.352,2.352,0,0,1-.988.564.416.416,0,0,0-.056.028l-4.516,1.609a.9.9,0,0,0-.593.875v8.834a4.545,4.545,0,0,0-3.613,4.431,4.5,4.5,0,0,0,1.609,3.415A6.491,6.491,0,0,0,11.741,39.2a6.393,6.393,0,0,0-2.512-2.371A4.488,4.488,0,0,0,6.322,28.9V19.587c0-1.27.367-1.729.818-2.032a3.058,3.058,0,0,1,1.609-.4h5.7a.923.923,0,0,0,.2-.028l6.491-1.355a.927.927,0,0,0,.536-.311l4.064-5.25A.694.694,0,0,1,26.219,9.963ZM6.322,30.707a2.66,2.66,0,1,1-.818.113c.053-.018.116-.014.169-.028a1.079,1.079,0,0,0,.113-.028A2.682,2.682,0,0,1,6.322,30.707Zm21.675,0a2.709,2.709,0,1,1-2.709,2.709A2.7,2.7,0,0,1,28,30.707Zm10.838,0a2.709,2.709,0,1,1-2.709,2.709A2.7,2.7,0,0,1,38.835,30.707Zm-21.9.028h.028a.919.919,0,0,0,.367,0h.028a2.7,2.7,0,1,1-.423,0Zm-10.612,7.2a4.524,4.524,0,0,1,4.516,4.516v.9H1.806v-.9A4.524,4.524,0,0,1,6.322,37.932Zm10.838,0a4.524,4.524,0,0,1,4.516,4.516v.9H12.644v-.9A4.524,4.524,0,0,1,17.16,37.932Zm10.838,0a4.524,4.524,0,0,1,4.516,4.516v.9H23.482v-.9A4.524,4.524,0,0,1,28,37.932Zm10.838,0a4.524,4.524,0,0,1,4.516,4.516v.9H34.319v-.9A4.524,4.524,0,0,1,38.835,37.932Z" fill="#fff"/>
</svg>
