<svg xmlns="http://www.w3.org/2000/svg" width="50.3" height="50.3" viewBox="0 0 50.3 50.3">
  <path id="icons8_collaboration" d="M19.5,2C11.135,2,7.467,7.575,7.467,12a8.773,8.773,0,0,0,4.167,7.471A14.664,14.664,0,0,0,19.5,21.683a15.176,15.176,0,0,0,3.456-.414c2.494,2.632,6.361,3.695,9.666,3.695a14.387,14.387,0,0,0,7.874-2.292,9.016,9.016,0,0,0,.824-14.589,13.406,13.406,0,0,0-8.7-2.8,16.486,16.486,0,0,0-3.539.369,9.662,9.662,0,0,0-.884-.848A13.406,13.406,0,0,0,19.5,2Zm0,2.187a11.242,11.242,0,0,1,7.3,2.3,7.675,7.675,0,0,1,.814.8l0,0a1.094,1.094,0,0,0,.412.508A6.645,6.645,0,0,1,29.337,11.8a6.61,6.61,0,0,1-3.187,5.777A12.448,12.448,0,0,1,19.5,19.5a12.741,12.741,0,0,1-6.668-1.852A6.379,6.379,0,0,1,9.654,12C9.654,8.726,12.069,4.187,19.5,4.187Zm13.122,3.28a11.242,11.242,0,0,1,7.3,2.3,6.761,6.761,0,0,1,2.541,5.316,6.61,6.61,0,0,1-3.187,5.777,12.529,12.529,0,0,1-13.9-.382,12.531,12.531,0,0,0,2-1.083A9,9,0,0,0,31.524,11.8a8.906,8.906,0,0,0-1.049-4.182A15.152,15.152,0,0,1,32.618,7.467ZM5.827,19.5C3.845,19.5,2,20.83,2,22.776s1.845,3.28,3.827,3.28,3.827-1.334,3.827-3.28S7.81,19.5,5.827,19.5Zm42.646,0c-1.983,0-3.827,1.334-3.827,3.28s1.845,3.28,3.827,3.28,3.827-1.334,3.827-3.28S50.456,19.5,48.473,19.5ZM5.827,21.683c1.037,0,1.64.624,1.64,1.093s-.6,1.093-1.64,1.093-1.64-.624-1.64-1.093S4.79,21.683,5.827,21.683Zm42.646,0c1.037,0,1.64.624,1.64,1.093s-.6,1.093-1.64,1.093-1.64-.624-1.64-1.093S47.436,21.683,48.473,21.683ZM15.156,26.057A8.61,8.61,0,0,0,9.518,27.78a5.861,5.861,0,0,0-2.05,4.564,8.593,8.593,0,0,0,.3,1.984c.066.274.082.3.135.491a3.023,3.023,0,0,0-.438,1.625,2.906,2.906,0,0,0,.73,2.106c.223.223.463.185.713.282a7.335,7.335,0,0,0,.547,1.653,6.192,6.192,0,0,0,.566.886c.046.059.132.1.177.16v1.7a2.3,2.3,0,0,1-1.113.987c-.693.368-1.645.718-2.635,1.177a8.936,8.936,0,0,0-2.89,1.95A6.028,6.028,0,0,0,2,51.141,1.094,1.094,0,0,0,3.093,52.3H51.207a1.094,1.094,0,0,0,1.091-1.16,5.688,5.688,0,0,0-1.785-3.853,10.233,10.233,0,0,0-3.261-1.918c-1.123-.454-2.212-.807-3.009-1.181a2.441,2.441,0,0,1-1.237-.967V41.53c.045-.056.131-.1.177-.16a6.176,6.176,0,0,0,.564-.884,7.352,7.352,0,0,0,.549-1.653c.251-.1.491-.059.713-.282a2.906,2.906,0,0,0,.73-2.106A3.023,3.023,0,0,0,45.3,34.82c.053-.188.068-.217.135-.491a8.594,8.594,0,0,0,.3-1.984,5.675,5.675,0,0,0-1.07-3.426,4.533,4.533,0,0,0-2.994-1.6l-.429-.722a1.094,1.094,0,0,0-.94-.536,8.61,8.61,0,0,0-5.638,1.724,5.86,5.86,0,0,0-2.05,4.564,8.594,8.594,0,0,0,.3,1.984c.066.274.082.3.135.491a3.023,3.023,0,0,0-.438,1.625,2.906,2.906,0,0,0,.73,2.106c.223.223.463.185.713.282a7.338,7.338,0,0,0,.547,1.653,6.193,6.193,0,0,0,.566.886c.046.059.132.1.177.16v1.7a2.3,2.3,0,0,1-1.113.987c-.693.368-1.645.718-2.635,1.177a8.936,8.936,0,0,0-2.89,1.95,6.027,6.027,0,0,0-1.561,3.8q0,.033,0,.066,0-.033,0-.066a5.688,5.688,0,0,0-1.785-3.853A10.233,10.233,0,0,0,22.1,45.37c-1.123-.454-2.212-.807-3.009-1.181a2.441,2.441,0,0,1-1.237-.967V41.53c.045-.056.131-.1.177-.16a6.175,6.175,0,0,0,.564-.884,7.352,7.352,0,0,0,.549-1.653c.251-.1.491-.059.713-.282a2.906,2.906,0,0,0,.73-2.106,3.023,3.023,0,0,0-.438-1.625c.053-.188.068-.217.135-.491a8.594,8.594,0,0,0,.3-1.984,5.675,5.675,0,0,0-1.07-3.426,4.533,4.533,0,0,0-2.994-1.6l-.429-.722a1.094,1.094,0,0,0-.94-.536ZM3.64,28.244a1.64,1.64,0,1,0,1.64,1.64A1.64,1.64,0,0,0,3.64,28.244Zm47.02,0a1.64,1.64,0,1,0,1.64,1.64A1.64,1.64,0,0,0,50.66,28.244Zm-36.081.077.286.481a1.094,1.094,0,0,0,.94.536,2.189,2.189,0,0,1,1.965.9,3.648,3.648,0,0,1,.632,2.11,8.606,8.606,0,0,1-.244,1.467c-.128.529-.254.944-.254.944a1.094,1.094,0,0,0,.41,1.211.807.807,0,0,1,.088.478c0,.5-.108.578-.09.56s.044-.013-.047-.013a1.094,1.094,0,0,0-1.087.974,4.724,4.724,0,0,1-.51,1.491,4.213,4.213,0,0,1-.363.572c-.1.132-.227.184-.043.09a1.094,1.094,0,0,0-.594.974v2.46a1.094,1.094,0,0,0,.073.389,4.291,4.291,0,0,0,2.42,2.228c1,.467,2.1.815,3.12,1.228a8.446,8.446,0,0,1,2.584,1.486,3.347,3.347,0,0,1,.82,1.23H4.65a4.27,4.27,0,0,1,.515-1.284,7,7,0,0,1,2.206-1.454c.881-.408,1.848-.756,2.742-1.23a4.342,4.342,0,0,0,2.2-2.2,1.094,1.094,0,0,0,.073-.389v-2.46a1.094,1.094,0,0,0-.6-.974c.184.094.06.042-.043-.09a4.23,4.23,0,0,1-.361-.572,4.717,4.717,0,0,1-.51-1.491,1.094,1.094,0,0,0-1.087-.974c-.091,0-.066-.006-.047.013s-.09-.058-.09-.56a.808.808,0,0,1,.088-.478,1.094,1.094,0,0,0,.41-1.211s-.126-.415-.254-.944a8.607,8.607,0,0,1-.243-1.467,3.524,3.524,0,0,1,1.266-2.885A6.322,6.322,0,0,1,14.579,28.321Zm25.15,0,.286.481a1.094,1.094,0,0,0,.94.536,2.189,2.189,0,0,1,1.965.9,3.648,3.648,0,0,1,.632,2.11,8.606,8.606,0,0,1-.244,1.467c-.128.529-.254.944-.254.944a1.094,1.094,0,0,0,.41,1.211.807.807,0,0,1,.088.478c0,.5-.108.578-.09.56s.044-.013-.047-.013a1.094,1.094,0,0,0-1.087.974,4.724,4.724,0,0,1-.51,1.491,4.214,4.214,0,0,1-.363.572c-.1.132-.227.184-.043.09a1.094,1.094,0,0,0-.594.974v2.46a1.093,1.093,0,0,0,.073.389,4.291,4.291,0,0,0,2.42,2.228c1,.467,2.1.815,3.12,1.228a8.446,8.446,0,0,1,2.584,1.486,3.347,3.347,0,0,1,.82,1.23H29.8a4.27,4.27,0,0,1,.515-1.284,7,7,0,0,1,2.206-1.454c.881-.408,1.848-.756,2.742-1.23a4.342,4.342,0,0,0,2.2-2.2,1.094,1.094,0,0,0,.073-.389v-2.46a1.094,1.094,0,0,0-.6-.974c.184.094.06.042-.043-.09a4.231,4.231,0,0,1-.361-.572,4.718,4.718,0,0,1-.51-1.491,1.094,1.094,0,0,0-1.087-.974c-.091,0-.065-.006-.047.013s-.09-.058-.09-.56a.807.807,0,0,1,.088-.478,1.094,1.094,0,0,0,.41-1.211s-.126-.415-.254-.944a8.606,8.606,0,0,1-.244-1.467,3.524,3.524,0,0,1,1.266-2.885A6.322,6.322,0,0,1,39.73,28.321Z" transform="translate(-2 -2)" fill="#fff"/>
</svg>
