<svg xmlns="http://www.w3.org/2000/svg" width="35.085" height="39.478" viewBox="0 0 35.085 39.478">
  <path id="icons8_contract_1" d="M9.14,4A6.165,6.165,0,0,0,3,10.14v2.631a.879.879,0,0,0,.877.877H8.263V39.962a.879.879,0,0,0,.877.877H21.42V39.085h-11.4V13.648H26.682a.879.879,0,0,0,.877-.877V10.14a4.394,4.394,0,0,1,4.386-4.386h.082a4.4,4.4,0,0,1,4.3,4.386V39.085H31.945v1.754h5.263a.879.879,0,0,0,.877-.877V10.14a6.165,6.165,0,0,0-6-6.14H9.14Zm0,1.754H27.7a6.089,6.089,0,0,0-1.891,4.386v1.754H4.754V10.14A4.394,4.394,0,0,1,9.14,5.754ZM14.4,16.28v1.754H31.945V16.28Zm0,5.263V23.3H31.945V21.542Zm12.28,5.263a2.092,2.092,0,0,0-1.645.9,2.089,2.089,0,0,0-1.809.329,2.032,2.032,0,0,0-.658,1.727,2.082,2.082,0,0,0-1.151,1.453,2.1,2.1,0,0,0,.6,1.727,2.125,2.125,0,0,0,.055,1.864,1.509,1.509,0,0,0,.219.247v7.538a.878.878,0,0,0,1.4.713l2.988-2.248,2.988,2.248a.878.878,0,0,0,1.4-.713V35.056a1.509,1.509,0,0,0,.219-.247,1.979,1.979,0,0,0,.055-1.864,2.1,2.1,0,0,0,.6-1.727,2.082,2.082,0,0,0-1.151-1.453,2.032,2.032,0,0,0-.658-1.727,2.089,2.089,0,0,0-1.809-.329A2.128,2.128,0,0,0,26.682,26.805Zm1.754,1.069c.038.027.11.082.082.055l-.027.027C28.474,27.929,28.454,27.9,28.437,27.874Zm-1.754.685c.281,0,.308.051.384.274a.915.915,0,0,0,.219.356,1.067,1.067,0,0,0,.329.219.979.979,0,0,0,.466.11.884.884,0,0,0,.466-.11.481.481,0,0,1,.493,0c.147.12.147.161.055.439a.9.9,0,0,0-.055.3c0,.12.062.137.11.247a.877.877,0,0,0,.713.795.481.481,0,0,1,.329.329.435.435,0,0,1-.192.411.878.878,0,0,0-.411.74v.274a.864.864,0,0,0,.164.521,1.1,1.1,0,0,1,.027.439.435.435,0,0,1-.411.192.874.874,0,0,0-.85.329v.027c-.031.024-.017.021-.055.055-.01.01-.017-.01-.027,0a.877.877,0,0,0-.274.63c0,.233,0,.236-.192.3a1.066,1.066,0,0,0-.11.055c-.007,0,.017,0-.027,0a.672.672,0,0,1-.356-.192.868.868,0,0,0-.63-.247h-.329a.868.868,0,0,0-.63.247.448.448,0,0,1-.493.137.365.365,0,0,1-.192-.3,1.06,1.06,0,0,0-.192-.548.893.893,0,0,0-.247-.247A.875.875,0,0,0,24,34.1a.435.435,0,0,1-.411-.192c-.1-.175-.137-.24,0-.411a.882.882,0,0,0,.192-.548v-.274a.879.879,0,0,0-.411-.74.435.435,0,0,1-.192-.411.481.481,0,0,1,.329-.329.877.877,0,0,0,.713-.795c.048-.11.11-.127.11-.247a.9.9,0,0,0-.055-.3c-.093-.278-.093-.319.055-.439a.481.481,0,0,1,.493,0,.873.873,0,0,0,.877,0h.027l.027-.027a.409.409,0,0,0,.055-.027.881.881,0,0,0,.493-.521A.48.48,0,0,1,26.682,28.559Zm-2.631,7.949a1.77,1.77,0,0,0,.74.576l.027.027a2.146,2.146,0,0,0,1.837-.3c.007,0,.021,0,.027,0h.164a1.974,1.974,0,0,0,.987.439,2.444,2.444,0,0,0,.713-.164.164.164,0,0,1,.055-.027c.017-.007.038.01.055,0v-.027a1.679,1.679,0,0,0,.658-.493v4.3L27.2,39.249a.874.874,0,0,0-1.042,0l-2.111,1.59Z" transform="translate(-3 -4)" fill="#fff"/>
</svg>
