<svg xmlns="http://www.w3.org/2000/svg" width="40.388" height="29.08" viewBox="0 0 40.388 29.08">
  <path id="icons8_secured_letter_2" d="M0,7V36.08H40.388V7ZM1.616,8.616H38.773v2.019c-.316.274-14.48,12.631-15.8,13.782l-.076.076a4.172,4.172,0,0,1-2.7,1.085,4.178,4.178,0,0,1-2.7-1.085c-.3-.262-2.458-2.127-4.014-3.483C8.863,16.983,1.852,10.843,1.616,10.635Zm0,4.165c1.4,1.221,6.371,5.547,10.6,9.239L1.616,30.4Zm37.157,0V30.4l-10.6-8.381C32.4,18.328,37.372,14,38.773,12.781ZM13.454,23.1c.981.855,2.755,2.4,2.979,2.6l.025.025a5.814,5.814,0,0,0,3.736,1.464A5.8,5.8,0,0,0,23.955,25.7c.227-.2,2.013-1.735,3-2.6l11.814,9.34v2.019H1.616V32.445Z" transform="translate(0 -7)" fill="#fff"/>
</svg>
