<svg xmlns="http://www.w3.org/2000/svg" width="20.162" height="14.516" viewBox="0 0 20.162 14.516">
  <path id="icons8_secured_letter" d="M0,7V8.121c1.214,1.057,8.181,7.131,8.733,7.611a1.949,1.949,0,0,0,2.7,0c.572-.5,7.945-6.926,8.732-7.611V7ZM0,9.193V19.311L6.1,14.5C4.122,12.778,1.3,10.327,0,9.193Zm20.162,0c-1.23,1.071-4.094,3.56-6.1,5.305l6.1,4.8ZM6.716,15.039,0,20.332v1.184H20.162v-1.2l-6.716-5.28c-.781.68-1.344,1.173-1.487,1.3a2.9,2.9,0,0,1-1.878.743A2.894,2.894,0,0,1,8.2,16.337C8.061,16.214,7.5,15.721,6.716,15.039Z" transform="translate(0 -7)" fill="#a09162"/>
</svg>
