<svg xmlns="http://www.w3.org/2000/svg" width="50.3" height="50.3" viewBox="0 0 50.3 50.3">
  <path id="icons8_geography" d="M27.15,2A25.15,25.15,0,1,0,52.3,27.15,25.167,25.167,0,0,0,27.15,2ZM26.057,4.315V14H18.231a26.844,26.844,0,0,1,1.392-3.377C21.423,7.029,23.7,4.838,26.057,4.315Zm2.187,0c2.353.523,4.633,2.714,6.433,6.313A26.86,26.86,0,0,1,36.069,14H28.244Zm-7.456.769a18.8,18.8,0,0,0-3.12,4.566A30.048,30.048,0,0,0,15.94,14H8.33A22.956,22.956,0,0,1,20.788,5.084Zm12.725,0A22.956,22.956,0,0,1,45.97,14H38.361A30.047,30.047,0,0,0,36.633,9.65,18.8,18.8,0,0,0,33.513,5.084ZM6.936,16.239h8.376a45.27,45.27,0,0,0-1.251,9.818H4.221A22.859,22.859,0,0,1,6.936,16.239Zm10.634,0h8.487v9.818H16.25A42.9,42.9,0,0,1,17.569,16.239Zm10.674,0h8.487a42.9,42.9,0,0,1,1.32,9.818H28.244Zm10.745,0h8.376a22.859,22.859,0,0,1,2.715,9.818H40.24A45.27,45.27,0,0,0,38.988,16.239Zm-34.757,12h9.824a45.118,45.118,0,0,0,1.256,9.818H6.938A22.843,22.843,0,0,1,4.232,28.244Zm12.011,0h9.814v9.818H17.569A42.782,42.782,0,0,1,16.243,28.244Zm12,0h9.814a42.782,42.782,0,0,1-1.326,9.818H28.244Zm12,0h9.824a22.844,22.844,0,0,1-2.706,9.818H38.988A45.118,45.118,0,0,0,40.244,28.244ZM8.337,40.3h7.6a30.047,30.047,0,0,0,1.728,4.355,18.794,18.794,0,0,0,3.12,4.566A22.966,22.966,0,0,1,8.337,40.3Zm9.895,0h7.825v9.69c-2.353-.523-4.633-2.714-6.433-6.313A26.846,26.846,0,0,1,18.231,40.3Zm10.012,0h7.825a26.863,26.863,0,0,1-1.393,3.377c-1.8,3.6-4.08,5.79-6.433,6.313Zm10.117,0h7.6a22.966,22.966,0,0,1-12.451,8.921,18.794,18.794,0,0,0,3.12-4.566A30.047,30.047,0,0,0,38.361,40.3Z" transform="translate(-2 -2)" fill="#fff"/>
</svg>
