<svg xmlns="http://www.w3.org/2000/svg" width="54.674" height="50.3" viewBox="0 0 54.674 50.3">
  <path id="icons8_user_groups" d="M18.589,2a6.556,6.556,0,0,0-3.861,11.858,8.787,8.787,0,0,0-2.358,1.709,7.527,7.527,0,0,0-2.529-.444A7.657,7.657,0,0,0,5.672,29.2,9.852,9.852,0,0,0,0,38.085v4.921a1.091,1.091,0,0,0,.444.888,8.4,8.4,0,0,0,2.255.991,25.121,25.121,0,0,0,7.142.854,25.122,25.122,0,0,0,7.142-.854c.192-.056.346-.111.513-.171v4.852a1.091,1.091,0,0,0,.444.888,8.4,8.4,0,0,0,2.255.991,25.121,25.121,0,0,0,7.142.854,25.122,25.122,0,0,0,7.142-.854,8.4,8.4,0,0,0,2.255-.991,1.091,1.091,0,0,0,.444-.888V44.714c.167.06.32.115.513.171a25.12,25.12,0,0,0,7.142.854,25.122,25.122,0,0,0,7.142-.854,8.4,8.4,0,0,0,2.255-.991,1.091,1.091,0,0,0,.444-.888V38.085A9.852,9.852,0,0,0,49,29.2a7.657,7.657,0,0,0-4.169-14.079,7.563,7.563,0,0,0-2.7.513,8.812,8.812,0,0,0-2.392-1.777,6.561,6.561,0,1,0-7.723,0,8.709,8.709,0,0,0-4.784,6.493,8.685,8.685,0,0,0-4.784-6.493A6.556,6.556,0,0,0,18.589,2Zm0,2.187a4.374,4.374,0,1,1-4.374,4.374A4.355,4.355,0,0,1,18.589,4.187Zm17.291,0a4.374,4.374,0,1,1-4.374,4.374A4.355,4.355,0,0,1,35.88,4.187ZM18.589,15.122a6.482,6.482,0,0,1,6.561,6.561v.342a7.64,7.64,0,0,0-1.982,13.737,9.937,9.937,0,0,0-3.485,2.768v-.444A9.852,9.852,0,0,0,14.01,29.2a7.643,7.643,0,0,0,.41-12.541A6.3,6.3,0,0,1,18.589,15.122Zm17.291,0a6.306,6.306,0,0,1,4.271,1.606A7.652,7.652,0,0,0,40.664,29.2a9.852,9.852,0,0,0-5.672,8.885v.444a9.937,9.937,0,0,0-3.485-2.768,7.649,7.649,0,0,0-2.187-13.805v-.273A6.482,6.482,0,0,1,35.88,15.122ZM9.841,17.309a5.467,5.467,0,1,1-5.467,5.467A5.45,5.45,0,0,1,9.841,17.309Zm34.992,0a5.466,5.466,0,1,1-2.768.752c.009,0,.026,0,.034,0a1.083,1.083,0,0,0,.444-.205c.038-.017.064-.051.1-.068a.51.51,0,0,0,.068-.034A5.387,5.387,0,0,1,44.833,17.309Zm-17.5,6.561a5.467,5.467,0,1,1-5.467,5.467A5.451,5.451,0,0,1,27.337,23.87Zm-17.5,6.561A7.669,7.669,0,0,1,17.5,38.085v4.2a3.05,3.05,0,0,1-1.128.478,22.841,22.841,0,0,1-6.527.786,22.84,22.84,0,0,1-6.527-.786,3.051,3.051,0,0,1-1.128-.478v-4.2A7.669,7.669,0,0,1,9.841,30.431Zm34.992,0a7.669,7.669,0,0,1,7.654,7.654v4.2a3.05,3.05,0,0,1-1.128.478,22.841,22.841,0,0,1-6.527.786,22.839,22.839,0,0,1-6.527-.786,3.05,3.05,0,0,1-1.128-.478v-4.2A7.669,7.669,0,0,1,44.833,30.431Zm-17.5,6.561a7.669,7.669,0,0,1,7.654,7.654v4.2a3.05,3.05,0,0,1-1.128.478,22.841,22.841,0,0,1-6.527.786,22.839,22.839,0,0,1-6.527-.786,3.05,3.05,0,0,1-1.128-.478v-4.2A7.669,7.669,0,0,1,27.337,36.992Z" transform="translate(0 -2)" fill="#fff"/>
</svg>
