<svg xmlns="http://www.w3.org/2000/svg" width="50.308" height="45.927" viewBox="0 0 50.308 45.927">
  <path id="icons8_facebook_like" d="M24.964,3A1.1,1.1,0,0,0,23.87,4.093v8.475L18.4,23.5V21.589A1.1,1.1,0,0,0,17.309,20.5H3.094a1.106,1.106,0,0,0-.82.376A1.082,1.082,0,0,0,2,21.726L5.281,47.97a1.1,1.1,0,0,0,1.093.957H17.309A1.093,1.093,0,0,0,18.4,47.833V46.739h1.264a3.308,3.308,0,0,0,3.11,2.187H43.553a4.354,4.354,0,0,0,3.622-6.8,4.4,4.4,0,0,0,2.939-4.135,4.318,4.318,0,0,0-1.025-2.8,4.392,4.392,0,0,0,2.119-3.759,4.318,4.318,0,0,0-1.025-2.8A4.381,4.381,0,0,0,47.927,20.5H31.935c.666-2.11,1.777-5.886,1.777-7.654C33.712,8.724,30.7,3,27.732,3Zm1.093,2.187h1.674c1,0,3.793,3.806,3.793,7.654,0,1.713-1.529,6.651-2.119,8.406a1.069,1.069,0,0,0,1.025,1.435h17.5a2.187,2.187,0,1,1,0,4.374H46.834a1.093,1.093,0,1,0,0,2.187,2.187,2.187,0,1,1,0,4.374H45.74a1.093,1.093,0,1,0,0,2.187,2.187,2.187,0,1,1,0,4.374H43.553a1.093,1.093,0,1,0,0,2.187,2.187,2.187,0,1,1,0,4.374H22.777a1.1,1.1,0,0,1-1.093-1.093,1.093,1.093,0,0,0-1.093-1.093H18.4V25.963h.547a1.124,1.124,0,0,0,.991-.615L25.955,13.32a1.017,1.017,0,0,0,.1-.478ZM4.324,22.683H16.216V46.739H7.331Zm8.064,18.589a1.64,1.64,0,1,0,1.64,1.64A1.641,1.641,0,0,0,12.389,41.272Z" transform="translate(-1.993 -3)" fill="#fff"/>
</svg>
