<svg id="Layer_1" data-name="Layer 1" xmlns="http://www.w3.org/2000/svg" width="100.47" height="34.75" viewBox="0 0 100.47 34.75"><defs><style>.cls-1{fill:#1a3f56;}</style></defs><title>logo1</title><polygon class="cls-1" points="0 33.25 9.55 26.24 11.45 26.24 27.95 9.38 44.27 24.42 52.47 16.46 54.16 17.65 57.4 13.84 59.3 15.46 71.6 4.02 87.97 24.02 89.16 23.07 100.47 33.25 89.4 19.52 87.49 20.71 72.08 0 58.83 12.93 57.4 11.66 53.92 14.76 52.35 13.81 44.45 22.26 29.05 4.64 10.95 23.21 8.21 23.33 0 33.25"/><polygon class="cls-1" points="16.09 24.02 27.56 12.65 26.91 17.34 29.44 20.09 27.78 20.96 31.25 26.45 24.24 21.54 16.09 24.02"/><polygon class="cls-1" points="46.09 24.97 52.9 18.53 54.76 19.39 57.61 16.14 60.95 20.01 57.49 18.77 52.1 25.45 56.87 34.75 46.09 24.97"/><polygon class="cls-1" points="65 12.48 71.12 10.05 85.23 22.48 71.42 6.35 65 12.48"/></svg>