<svg xmlns="http://www.w3.org/2000/svg" width="36.72" height="51.651" viewBox="0 0 36.72 51.651">
  <path id="icons8_medal" d="M12.5,2a2.5,2.5,0,0,0-.835,4.854V12.5a4.162,4.162,0,0,0,2.23,3.7l11.123,5.848v.818a2.493,2.493,0,0,0,1.428,2.253l-2.94,7.217-11.08,1.014a.837.837,0,0,0-.476,1.46l8.362,7.309L17.752,52.623a.83.83,0,0,0,1.245.9l9.362-5.79,9.362,5.79a.83.83,0,0,0,1.245-.9L36.405,42.116l8.362-7.309a.837.837,0,0,0-.476-1.46l-11.08-1.014-2.94-7.217A2.493,2.493,0,0,0,31.7,22.863v-.818L42.821,16.2a4.162,4.162,0,0,0,2.23-3.7V6.854A2.5,2.5,0,0,0,44.216,2Zm0,1.669H44.216a.835.835,0,0,1,0,1.669H12.5a.835.835,0,0,1,0-1.669Zm.835,3.338h6.676V17.53l-5.343-2.813a2.5,2.5,0,0,1-1.333-2.22Zm8.345,0H35.036v11.4l-3.521,1.852a2.524,2.524,0,0,0-2.321-1.568H27.525A2.524,2.524,0,0,0,25.2,20.259l-3.521-1.852Zm15.022,0h6.676V12.5a2.5,2.5,0,0,1-1.333,2.22L36.705,17.53ZM27.525,20.36h1.669a.833.833,0,0,1,.818.691.667.667,0,0,1,.016.143v1.669a.144.144,0,0,1-.01.065.828.828,0,0,1-.381.636.79.79,0,0,1-.443.134H27.525a.79.79,0,0,1-.443-.134.827.827,0,0,1-.381-.636.144.144,0,0,1-.01-.065V21.194a.667.667,0,0,1,.016-.143A.833.833,0,0,1,27.525,20.36Zm.636,5.007h.4l3.3,8.072a.826.826,0,0,0,.7.515l9.636.877-3.077,2.693a.829.829,0,0,0-1.578.362v.835a.824.824,0,0,0,.029.156L34.919,41.2a.832.832,0,0,0-.258.828l2.2,9.014L28.8,46.048a.836.836,0,0,0-.887,0l-8.059,4.991,2.2-9.014A.832.832,0,0,0,21.8,41.2l-3.508-3.064a.82.82,0,0,0,.052-.248A.838.838,0,0,0,18.1,37.3a.864.864,0,0,0-.945-.163L14.525,34.83l9.636-.877a.826.826,0,0,0,.7-.515ZM21.683,37.05a.834.834,0,0,0-.835.835v1.669a.835.835,0,1,0,1.669,0V37.885A.834.834,0,0,0,21.683,37.05Zm4.173,0a.834.834,0,0,0-.835.835v1.669a.835.835,0,1,0,1.669,0V37.885A.834.834,0,0,0,25.856,37.05Zm4.173,0a.834.834,0,0,0-.835.835v1.669a.835.835,0,1,0,1.669,0V37.885A.834.834,0,0,0,30.029,37.05Zm4.173,0a.834.834,0,0,0-.835.835v1.669a.835.835,0,1,0,1.669,0V37.885A.834.834,0,0,0,34.2,37.05ZM24.187,42.058a.835.835,0,1,0,0,1.669h8.345a.835.835,0,1,0,0-1.669Z" transform="translate(-10 -2)" fill="#fff"/>
</svg>
