<svg xmlns="http://www.w3.org/2000/svg" width="35.556" height="35.56" viewBox="0 0 35.556 35.56">
  <path id="icons8_phone_2" d="M10.14,2.986a2.991,2.991,0,0,0-1.95.577A28.013,28.013,0,0,0,5.284,6.006,14.361,14.361,0,0,0,3.763,7.669,2.759,2.759,0,0,0,3,9.471,13.725,13.725,0,0,0,4.5,15.1c1.41,3,4.146,7.118,9.482,12.457s9.457,8.074,12.457,9.485a13.714,13.714,0,0,0,5.626,1.5,2.758,2.758,0,0,0,1.8-.764,14.643,14.643,0,0,0,1.663-1.521,28.3,28.3,0,0,0,2.439-2.906,2.446,2.446,0,0,0-.249-3.471c-.625-.439-6.371-4.263-7.235-4.793a2.769,2.769,0,0,0-2.789.183c-.71.376-2.632,1.477-3.181,1.792a34.106,34.106,0,0,1-5.355-4.679,33.9,33.9,0,0,1-4.679-5.355c.316-.549,1.414-2.461,1.792-3.184a2.731,2.731,0,0,0,.174-2.8c-.237-.375-1.313-2.013-2.4-3.657s-2.12-3.2-2.389-3.575v0A2.039,2.039,0,0,0,10.14,2.986Zm-.148,1.65a.891.891,0,0,1,.353.117c.129.18,1.262,1.877,2.348,3.518s2.193,3.329,2.385,3.635a1.852,1.852,0,0,1-.24,1.18v0c-.357.678-2.019,3.584-2.019,3.584l-.23.407.237.4a36.378,36.378,0,0,0,5.184,6.036,36.619,36.619,0,0,0,6.039,5.187l.4.237.407-.23s2.9-1.66,3.584-2.019a1.836,1.836,0,0,1,1.2-.233c.558.344,6.765,4.468,7.147,4.736a1.064,1.064,0,0,1-.142,1.221h0a27.925,27.925,0,0,1-2.281,2.714,13.338,13.338,0,0,1-1.47,1.35,5.4,5.4,0,0,1-.773.439,11.463,11.463,0,0,1-4.992-1.347c-2.786-1.306-6.762-3.922-12-9.166s-7.854-9.214-9.163-12A11.488,11.488,0,0,1,4.615,9.417a5.3,5.3,0,0,1,.439-.776A13.291,13.291,0,0,1,6.4,7.167,28.328,28.328,0,0,1,9.115,4.886v0A1.246,1.246,0,0,1,9.992,4.637Z" transform="translate(-2.999 -2.978)" fill="#fff"/>
</svg>
