<svg xmlns="http://www.w3.org/2000/svg" width="38.773" height="40.338" viewBox="0 0 38.773 40.338">
  <path id="icons8_place_marker" d="M20.386.063A11.273,11.273,0,0,0,9.128,11.321c0,5.143,2.7,11.041,5.351,15.726a79.388,79.388,0,0,0,5.3,8.153.748.748,0,0,0,1.212,0,81.63,81.63,0,0,0,5.3-8.229c2.651-4.714,5.351-10.615,5.351-15.65A11.273,11.273,0,0,0,20.386.063Zm0,1.515a9.725,9.725,0,0,1,9.744,9.744c0,4.487-2.549,10.3-5.15,14.918a72.539,72.539,0,0,1-4.594,7.219,69.211,69.211,0,0,1-4.594-7.144c-2.6-4.588-5.15-10.387-5.15-14.994A9.725,9.725,0,0,1,20.386,1.577Zm0,4.922a5.629,5.629,0,1,0,5.629,5.629A5.642,5.642,0,0,0,20.386,6.5Zm0,1.565a4.064,4.064,0,1,1-4.064,4.064A4.049,4.049,0,0,1,20.386,8.064ZM12.435,27.6a28.176,28.176,0,0,0-7.977,2.2A8.414,8.414,0,0,0,2.01,31.464,3.339,3.339,0,0,0,1,33.736a3.8,3.8,0,0,0,1.792,2.928,14.307,14.307,0,0,0,4.216,1.969A46.075,46.075,0,0,0,20.386,40.4a46.075,46.075,0,0,0,13.379-1.767,14.308,14.308,0,0,0,4.216-1.969,3.8,3.8,0,0,0,1.792-2.928,3.345,3.345,0,0,0-1.01-2.272A8.415,8.415,0,0,0,36.315,29.8a28.176,28.176,0,0,0-7.977-2.2.818.818,0,1,0-.252,1.616,27.136,27.136,0,0,1,7.522,2.045A7.162,7.162,0,0,1,37.6,32.6a1.633,1.633,0,0,1,.555,1.136c0,.464-.309,1-1.136,1.616a13.005,13.005,0,0,1-3.736,1.742,44.878,44.878,0,0,1-12.9,1.691,44.878,44.878,0,0,1-12.9-1.691,13,13,0,0,1-3.736-1.742c-.827-.618-1.136-1.152-1.136-1.616A1.632,1.632,0,0,1,3.171,32.6a7.162,7.162,0,0,1,1.994-1.338,27.135,27.135,0,0,1,7.522-2.045.818.818,0,0,0-.252-1.616Z" transform="translate(-1 -0.063)" fill="#fff"/>
</svg>
