<svg xmlns="http://www.w3.org/2000/svg" width="45.157" height="44.423" viewBox="0 0 45.157 44.423">
  <path id="icons8_technical_support" d="M26.191.812C19.689.812,13.025,2.8,8.1,9.082S0,25.794,0,42.526a.9.9,0,0,0,1.044.9,99.761,99.761,0,0,1,15.212-.9h.056a9.1,9.1,0,0,0,6.266,2.709,10.157,10.157,0,0,0,6.6-2.709h.028a.943.943,0,0,0,.141,0,91.531,91.531,0,0,1,14.732.9.9.9,0,0,0,1.072-.9,51.493,51.493,0,0,0-.79-9.681,16.9,16.9,0,0,0-.677-2.625,4.429,4.429,0,0,0,.564-2.145V25.367a4.53,4.53,0,0,0-1.806-3.584A20.473,20.473,0,0,0,38.271,9.054,14.105,14.105,0,0,0,27.8,3.776l-.734-2.343A.9.9,0,0,0,26.191.812Zm-.649,1.863.677,2.2a.9.9,0,0,0,.875.621,12.193,12.193,0,0,1,9.765,4.685,18.428,18.428,0,0,1,3.754,10.753,4.488,4.488,0,0,0-.875-.085H37.847a.9.9,0,0,0-.819.9v1.637a3.962,3.962,0,0,0-1.27-.367c-1.083-1.355-5.6-7.049-7.761-12.559a.8.8,0,0,0-.9-.536.868.868,0,0,0-.818.621c-.9,3.253-8.4,12.746-16.172,12.926a3.1,3.1,0,0,0-2.512.452A3.625,3.625,0,0,0,6.322,27a4.249,4.249,0,0,0,3.33,4.233,37.154,37.154,0,0,0,5,9.511,97.134,97.134,0,0,0-12.785.762C2,25.67,5.055,15.894,9.511,10.211,13.907,4.6,19.633,2.8,25.542,2.675ZM27.094,13.09a62.194,62.194,0,0,0,7.394,11.374,1.149,1.149,0,0,0,.734.367,2.143,2.143,0,0,1,1.806,1.1v2.145c0,1.175-2.258,1.439-2.258,1.439a.984.984,0,0,0-.818.734A23.523,23.523,0,0,1,31.779,36.2h2A26.892,26.892,0,0,0,35.5,31.237a5.874,5.874,0,0,0,1.524-.564v1.016a.9.9,0,0,0,.9.9h.9a4.524,4.524,0,0,1-4.516,4.516H26.925a2.719,2.719,0,0,0-2.54-1.806H22.579a2.709,2.709,0,1,0,0,5.419h1.806a2.719,2.719,0,0,0,2.54-1.806h7.394a6.348,6.348,0,0,0,6.322-6.322v-.085a4.548,4.548,0,0,0,1.665-.706c.1.374.173.819.282,1.383a49.542,49.542,0,0,1,.734,8.3,91.619,91.619,0,0,0-12.362-.734c.257-.3.494-.607.734-.931H29.352c-1.9,2.166-4.244,3.613-6.774,3.613-4.336,0-8.026-4.346-11.459-13.378a.767.767,0,0,0-.734-.536A2.466,2.466,0,0,1,8.128,27a2.135,2.135,0,0,1,.452-1.552,1.758,1.758,0,0,1,1.072-.169h.282C17.431,25.282,24.565,17.877,27.094,13.09Zm11.741,9.568h.9a2.71,2.71,0,0,1,2.709,2.709v2.709a2.706,2.706,0,0,1-.423,1.468.962.962,0,0,0-.141.2,2.714,2.714,0,0,1-2.145,1.044h-.9V26.072a.957.957,0,0,0,0-.621ZM22.579,37.107h1.806a.9.9,0,1,1,0,1.806H22.579a.9.9,0,1,1,0-1.806Z" transform="translate(0 -0.812)" fill="#fff"/>
</svg>
